<?xml version="1.0" encoding="iso-8859-1"?>
<!-- Uploaded to: SVG Repo, www.svgrepo.com, Generator: SVG Repo Mixer Tools -->
<svg height="800px" width="800px" version="1.1" id="Layer_1" xmlns="http://www.w3.org/2000/svg" xmlns:xlink="http://www.w3.org/1999/xlink" 
	 viewBox="0 0 511.999 511.999" xml:space="preserve">
<path style="fill:#DC4161;" d="M430.84,144.775c-5.147-9.56-17.074-13.14-26.638-7.994l-62.8,33.815l33.811-62.8
	c5.151-9.563,1.572-21.488-7.99-26.638c-9.564-5.149-21.49-1.569-26.638,7.992l-64.89,120.512c-0.012,0.026-0.024,0.05-0.035,0.075
	c-0.1,0.188-0.185,0.385-0.279,0.574c-0.177,0.357-0.347,0.715-0.5,1.074c-0.075,0.177-0.138,0.359-0.207,0.539
	c-0.153,0.396-0.295,0.791-0.42,1.189c-0.051,0.163-0.097,0.325-0.143,0.486c-0.126,0.435-0.233,0.871-0.328,1.306
	c-0.03,0.143-0.059,0.287-0.087,0.431c-0.092,0.485-0.165,0.971-0.22,1.458c-0.01,0.106-0.029,0.21-0.038,0.315
	c-0.056,0.602-0.092,1.202-0.094,1.801c0,0.051,0.008,0.102,0.008,0.153c0,0.523,0.026,1.044,0.069,1.563
	c0.021,0.229,0.051,0.458,0.08,0.687c0.041,0.347,0.089,0.692,0.148,1.036c0.043,0.253,0.093,0.509,0.148,0.76
	c0.075,0.343,0.159,0.683,0.25,1.024c0.064,0.227,0.118,0.454,0.19,0.679c0.172,0.553,0.363,1.103,0.583,1.64
	c0.029,0.067,0.062,0.131,0.089,0.195c0.215,0.507,0.454,1.003,0.709,1.491c0.028,0.054,0.049,0.111,0.077,0.167
	c0.075,0.134,0.156,0.261,0.233,0.393c0.134,0.239,0.269,0.476,0.414,0.711c0.123,0.198,0.257,0.392,0.387,0.583
	c0.147,0.219,0.292,0.435,0.447,0.648c0.16,0.219,0.332,0.427,0.501,0.638c0.14,0.176,0.274,0.353,0.42,0.522
	c0.295,0.343,0.599,0.674,0.914,0.991c0.028,0.029,0.054,0.064,0.084,0.094c0.003,0,0.003,0.003,0.007,0.005
	c0.001,0.001,0.004,0.004,0.007,0.005c0.03,0.03,0.063,0.058,0.093,0.088c0.319,0.312,0.646,0.617,0.987,0.91
	c0.174,0.148,0.355,0.286,0.535,0.427c0.207,0.167,0.412,0.334,0.625,0.492c0.215,0.157,0.435,0.302,0.656,0.452
	c0.191,0.13,0.382,0.26,0.578,0.383c0.233,0.143,0.468,0.279,0.707,0.414c0.134,0.075,0.261,0.159,0.397,0.233
	c0.056,0.029,0.115,0.051,0.172,0.081c0.476,0.249,0.96,0.481,1.457,0.692c0.077,0.033,0.153,0.072,0.231,0.105
	c0.532,0.218,1.075,0.408,1.623,0.578c0.239,0.075,0.479,0.135,0.717,0.199c0.325,0.087,0.65,0.169,0.978,0.24
	c0.266,0.059,0.53,0.11,0.796,0.156c0.328,0.058,0.658,0.101,0.989,0.143c0.244,0.028,0.489,0.063,0.733,0.084
	c0.484,0.041,0.97,0.06,1.459,0.066c0.083,0,0.167,0.008,0.25,0.007c0.594,0,1.188-0.033,1.779-0.09
	c0.121-0.012,0.243-0.03,0.361-0.045c0.473-0.054,0.945-0.123,1.413-0.21c0.155-0.03,0.304-0.064,0.456-0.097
	c0.43-0.09,0.857-0.197,1.284-0.317c0.169-0.047,0.338-0.097,0.505-0.149c0.395-0.122,0.784-0.264,1.173-0.412
	c0.185-0.072,0.37-0.138,0.553-0.215c0.355-0.149,0.708-0.319,1.061-0.493c0.194-0.094,0.393-0.182,0.585-0.285
	c0.025-0.013,0.05-0.024,0.073-0.035l120.516-64.889C432.409,166.264,435.99,154.34,430.84,144.775z"/>
<path style="fill:#E07188;" d="M430.84,144.775c-5.147-9.56-17.074-13.14-26.638-7.994l-62.8,33.815l-62.299,62.299
	c0.001,0.001,0.003,0.004,0.005,0.004c0.03,0.03,0.063,0.058,0.093,0.088c0.319,0.312,0.646,0.618,0.987,0.91
	c0.174,0.148,0.355,0.286,0.535,0.427c0.207,0.167,0.412,0.334,0.625,0.492c0.215,0.157,0.435,0.302,0.656,0.452
	c0.191,0.13,0.382,0.26,0.578,0.383c0.233,0.143,0.468,0.279,0.707,0.414c0.134,0.075,0.261,0.159,0.397,0.233
	c0.056,0.029,0.115,0.051,0.172,0.081c0.476,0.249,0.96,0.481,1.457,0.692c0.077,0.033,0.153,0.072,0.231,0.105
	c0.532,0.218,1.075,0.408,1.623,0.578c0.239,0.075,0.479,0.135,0.717,0.199c0.325,0.087,0.65,0.169,0.978,0.24
	c0.266,0.059,0.53,0.11,0.796,0.156c0.328,0.058,0.658,0.101,0.989,0.143c0.244,0.028,0.489,0.063,0.733,0.084
	c0.484,0.041,0.97,0.06,1.459,0.066c0.083,0,0.167,0.008,0.25,0.007c0.594,0,1.188-0.033,1.779-0.09
	c0.121-0.012,0.243-0.03,0.361-0.045c0.473-0.054,0.945-0.123,1.413-0.21c0.155-0.03,0.304-0.064,0.456-0.097
	c0.43-0.09,0.857-0.197,1.284-0.317c0.169-0.047,0.338-0.097,0.505-0.149c0.395-0.122,0.784-0.264,1.173-0.412
	c0.185-0.072,0.37-0.138,0.553-0.215c0.355-0.149,0.708-0.319,1.061-0.493c0.194-0.094,0.393-0.182,0.585-0.284
	c0.025-0.013,0.05-0.024,0.073-0.035l120.516-64.889C432.409,166.264,435.99,154.34,430.84,144.775z"/>
<path style="fill:#DC4161;" d="M210.678,227.287l-5.665-114.853c-0.534-10.846-9.762-19.207-20.61-18.672
	c-10.849,0.535-19.208,9.762-18.675,20.611l5.666,114.853c0.248,5.071,2.399,9.601,5.731,12.932c3.79,3.79,9.103,6.023,14.878,5.739
	C202.854,247.362,211.213,238.135,210.678,227.287z"/>
<path style="fill:#E07188;" d="M418.237,327.594c0.538-10.846-7.82-20.075-18.672-20.611l-114.853-5.664
	c-10.846-0.535-20.076,7.824-20.61,18.674c-0.286,5.775,1.95,11.089,5.74,14.879c3.329,3.329,7.859,5.482,12.934,5.732
	l114.852,5.664C408.475,346.801,417.702,338.442,418.237,327.594z"/>
<path style="fill:#DC4161;" d="M155.435,276.094l-37.078-37.086l0,0c-7.679-7.678-20.131-7.679-27.812,0
	c-7.682,7.678-7.682,20.13-0.003,27.81l37.078,37.085l0.003,0.003c7.679,7.679,20.129,7.679,27.812,0.001
	C163.114,296.226,163.114,283.776,155.435,276.094z"/>
<path style="fill:#E07188;" d="M272.925,393.578l-37.085-37.081c-7.679-7.679-20.131-7.679-27.812,0.003
	c-7.679,7.678-7.676,20.131,0.003,27.812l37.083,37.081c7.679,7.679,20.131,7.678,27.812-0.003
	C280.606,413.71,280.605,401.256,272.925,393.578z"/>
<path style="fill:#DC4161;" d="M217.3,449.205L62.728,294.633c-7.68-7.678-20.133-7.678-27.812,0.001
	c-7.68,7.68-7.68,20.131,0,27.812l154.569,154.568c7.682,7.682,20.134,7.682,27.814,0.001
	C224.979,469.336,224.979,456.884,217.3,449.205z"/>
<g>
	<path style="fill:#E07188;" d="M217.3,449.205l-77.286-77.285L112.2,399.73l77.286,77.283c7.682,7.682,20.134,7.682,27.814,0.001
		C224.979,469.336,224.979,456.884,217.3,449.205z"/>
	<path style="fill:#E07188;" d="M298.571,22.47c0.886-6.133-1.175-12.325-5.559-16.71c-4.382-4.383-10.575-6.443-16.708-5.558
		c-19.305,2.778-83.917,13.478-104.837,34.398c-12.383,12.382-19.202,28.845-19.202,46.353c0,17.509,6.819,33.972,19.201,46.353
		l0.003,0.003c25.558,25.555,67.146,25.555,92.702-0.003C285.092,106.387,295.79,41.774,298.571,22.47z"/>
</g>
<path style="fill:#DC4161;" d="M511.798,235.694c0.881-6.136-1.177-12.328-5.559-16.71c-4.384-4.383-10.575-6.443-16.711-5.559
	c-19.305,2.781-83.919,13.48-104.838,34.401c-12.382,12.382-19.202,28.845-19.202,46.353c-0.003,17.509,6.819,33.972,19.201,46.353
	c25.559,25.559,67.148,25.561,92.707,0.001C498.317,319.612,509.018,254.999,511.798,235.694z"/>
<path style="fill:#E07188;" d="M139.413,412.865c45.764,6.811,115.594-35.354,158.234-77.998
	c28.024-28.021,40.47-52.034,39.168-75.57c-1.249-22.624-15.101-39.42-29.916-54.235c-14.777-14.778-31.573-28.627-54.199-29.878
	c-23.535-1.299-47.55,11.144-75.571,39.164c-42.642,42.642-84.808,112.471-77.995,158.239l-84.437,22.056
	c-6.82,1.78-12.164,7.074-14.009,13.876c-1.847,6.802,0.09,14.072,5.073,19.056l78.663,78.663
	c4.983,4.982,12.255,6.917,19.056,5.073c6.803-1.845,12.097-7.189,13.876-14.01L139.413,412.865z"/>
<path style="fill:#DC4161;" d="M139.413,412.865c45.764,6.811,115.594-35.354,158.234-77.998
	c28.024-28.021,40.47-52.034,39.168-75.57c-1.249-22.615-15.09-39.408-29.898-54.217L45.089,466.908l39.332,39.331
	c4.983,4.982,12.255,6.917,19.056,5.073c6.803-1.845,12.097-7.189,13.876-14.01L139.413,412.865z"/>
</svg>