<svg width="19" height="15" viewBox="0 0 19 15" fill="none" xmlns="http://www.w3.org/2000/svg">
<path d="M16.0057 1.199C14.7639 0.631043 13.4531 0.227998 12.1067 0.000124931C11.9232 0.329659 11.757 0.668513 11.6088 1.01531C10.8926 0.907303 10.1694 0.852943 9.44517 0.852688C8.72211 0.852688 7.99542 0.907625 7.28123 1.01394C7.13536 0.669625 6.96598 0.328187 6.78211 0C5.43566 0.23003 4.12477 0.633862 2.88229 1.20137C0.414607 4.85187 -0.254142 8.41119 0.0802329 11.9199C1.52521 12.9872 3.14241 13.7989 4.86161 14.3198C5.24717 13.7993 5.59255 13.2452 5.88573 12.6687C5.32628 12.4602 4.7864 12.2026 4.27242 11.8988C4.40773 11.8007 4.53998 11.6997 4.66773 11.6016C6.16223 12.3034 7.79517 12.6696 9.4473 12.6696C11.0995 12.6696 12.7325 12.3034 14.227 11.6014C14.3563 11.707 14.4886 11.8081 14.6223 11.8987C14.1073 12.2031 13.5665 12.4614 13.0061 12.6707C13.3003 13.2485 13.6429 13.8004 14.0302 14.3204C15.751 13.8012 17.3695 12.9895 18.8148 11.921L18.8144 11.9214C19.2068 7.85244 18.1442 4.32581 16.0057 1.199ZM6.30861 9.76206C5.37686 9.76206 4.60698 8.91644 4.60698 7.87619C4.60698 6.83587 5.35005 5.98281 6.30567 5.98281C7.26123 5.98281 8.02511 6.83587 8.00873 7.87619C7.99242 8.91644 7.2583 9.76206 6.30861 9.76206ZM12.586 9.76206C11.6527 9.76206 10.8859 8.91644 10.8859 7.87619C10.8859 6.83587 11.629 5.98281 12.586 5.98281C13.5431 5.98281 14.301 6.83587 14.2847 7.87619C14.2684 8.91644 13.5357 9.76206 12.586 9.76206Z" fill="white"/>
</svg>
