<svg width="23" height="18" viewBox="0 0 23 18" fill="none" xmlns="http://www.w3.org/2000/svg">
<path d="M20.25 1.0133e-07H2.24977C1.95431 -8.85883e-05 1.66171 0.058043 1.38872 0.171073C1.11572 0.284104 0.867675 0.449817 0.658746 0.658746C0.449817 0.867675 0.284104 1.11572 0.171073 1.38872C0.058043 1.66171 -8.85883e-05 1.95431 1.0133e-07 2.24978V15.7498C-8.85883e-05 16.0452 0.058043 16.3378 0.171073 16.6108C0.284104 16.8838 0.449817 17.1319 0.658746 17.3408C0.867675 17.5497 1.11572 17.7154 1.38872 17.8285C1.66171 17.9415 1.95431 17.9996 2.24977 17.9996H20.25C20.5455 17.9996 20.8381 17.9415 21.1111 17.8285C21.3841 17.7154 21.6321 17.5497 21.841 17.3408C22.05 17.1319 22.2157 16.8838 22.3287 16.6108C22.4417 16.3378 22.4999 16.0452 22.4998 15.7498V2.24978C22.4999 1.95431 22.4417 1.66171 22.3287 1.38872C22.2157 1.11572 22.05 0.867675 21.841 0.658746C21.6321 0.449817 21.3841 0.284104 21.1111 0.171073C20.8381 0.058043 20.5455 -8.85883e-05 20.25 1.0133e-07ZM6.48675 12.3748C6.19515 12.3748 5.9265 12.2175 5.7834 11.963L3.52687 7.93328V11.7376C3.52714 11.8212 3.51089 11.9041 3.47904 11.9814C3.4472 12.0588 3.4004 12.1291 3.34132 12.1883C3.28224 12.2475 3.21205 12.2944 3.13477 12.3264C3.0575 12.3584 2.97466 12.3749 2.89103 12.3748H2.88697C2.80325 12.375 2.72031 12.3586 2.64292 12.3266C2.56553 12.2947 2.49521 12.2477 2.43601 12.1885C2.3768 12.1293 2.32988 12.059 2.29792 11.9816C2.26596 11.9042 2.2496 11.8213 2.24977 11.7376V6.43005C2.25004 6.25192 2.30931 6.0789 2.41832 5.93802C2.52733 5.79714 2.67994 5.69635 2.8523 5.65139C3.02466 5.60643 3.20706 5.61983 3.37099 5.68952C3.53493 5.75919 3.67116 5.88122 3.7584 6.03652L6.01897 10.0751V6.2613C6.01897 6.09248 6.08604 5.93058 6.20541 5.81121C6.32478 5.69184 6.48668 5.62477 6.6555 5.62477C6.82432 5.62477 6.98622 5.69184 7.10559 5.81121C7.22496 5.93058 7.29202 6.09248 7.29202 6.2613V11.5695C7.29202 12.0137 6.9309 12.3748 6.48675 12.3748ZM12.611 12.3748H9.75037C9.65175 12.375 9.55407 12.3557 9.46292 12.318C9.37177 12.2803 9.28896 12.2251 9.21922 12.1553C9.14949 12.0856 9.09421 12.0028 9.05655 11.9116C9.01889 11.8205 8.9996 11.7228 8.99977 11.6242V6.3747C8.99969 6.27614 9.01904 6.17852 9.05674 6.08746C9.09444 5.99639 9.14974 5.91365 9.21946 5.84399C9.28919 5.77432 9.37197 5.7191 9.46308 5.68148C9.55418 5.64387 9.65181 5.6246 9.75037 5.62477H12.6036C12.904 5.62477 13.1476 5.86845 13.1476 6.16883V6.20662C13.1475 6.35086 13.0901 6.48914 12.9881 6.59113C12.8861 6.69312 12.7478 6.7505 12.6036 6.75068H10.6528C10.5535 6.75068 10.4582 6.79014 10.3879 6.8604C10.3177 6.93066 10.2782 7.02594 10.2782 7.1253V7.9839C10.2782 8.19045 10.4456 8.35852 10.6528 8.35852H12.1858C12.3268 8.36349 12.4605 8.42302 12.5585 8.52457C12.6565 8.62612 12.7113 8.76176 12.7113 8.90291C12.7113 9.04406 12.6565 9.1797 12.5585 9.28125C12.4605 9.3828 12.3268 9.44233 12.1858 9.4473H10.6528C10.5535 9.4473 10.4582 9.48677 10.3879 9.55702C10.3177 9.62728 10.2782 9.72257 10.2782 9.82192V10.8797C10.2782 11.0862 10.4456 11.2543 10.6528 11.2543H12.611C12.9114 11.2543 13.1557 11.4979 13.1557 11.7983V11.8267C13.1557 12.1304 12.9127 12.3748 12.611 12.3748ZM20.25 11.2496C20.25 11.8685 19.8281 12.3748 19.3131 12.3748H15.5635C15.0471 12.3748 14.6252 11.8685 14.6252 11.2496V6.21067C14.6252 6.05528 14.687 5.90626 14.7968 5.79638C14.9067 5.6865 15.0557 5.62477 15.2111 5.62477C15.3665 5.62477 15.5155 5.6865 15.6254 5.79638C15.7353 5.90626 15.797 6.05528 15.797 6.21067V10.1743C15.797 10.4645 16.0326 10.6994 16.3228 10.6994H16.3316C16.6219 10.6994 16.8568 10.4645 16.8568 10.1743V7.32442C16.8568 7.16894 16.9185 7.01983 17.0285 6.90989C17.1384 6.79995 17.2875 6.73819 17.443 6.73819C17.5985 6.73819 17.7476 6.79995 17.8575 6.90989C17.9675 7.01983 18.0293 7.16894 18.0293 7.32442V10.1628C18.0293 10.3022 18.0846 10.4358 18.1832 10.5344C18.2817 10.6329 18.4154 10.6883 18.5547 10.6883C18.6941 10.6883 18.8278 10.6329 18.9263 10.5344C19.0249 10.4358 19.0802 10.3022 19.0802 10.1628V6.21067C19.089 6.0615 19.1545 5.92132 19.2632 5.81881C19.3719 5.7163 19.5157 5.6592 19.6651 5.6592C19.8145 5.6592 19.9583 5.7163 20.067 5.81881C20.1758 5.92132 20.2412 6.0615 20.25 6.21067V11.2496Z" fill="#CD7A37"/>
</svg>
